@startuml

!include https://raw.githubusercontent.com/bschwarz/puml-themes/master/themes/cerulean-outline/puml-theme-cerulean-outline.puml
'https://plantuml.com/class-diagram'

abstract class AbstractList
abstract AbstractCollection
interface List
interface Collection

List <|-- AbstractList
Collection <|-- AbstractCollection

Collection <|- List
AbstractCollection <|- AbstractList
AbstractList <|-- ArrayList

class ArrayList {
Object[] elementData
size()
}

class Launcher {

}

enum TimeUnit {
DAYS
HOURS
MINUTES
}

@enduml